<svg xmlns="http://www.w3.org/2000/svg" width="53.432" height="53.415" viewBox="0 0 53.432 53.415">
  <g id="body_tattoo" transform="translate(0.25 0.171)">
    <path id="Path_9" data-name="Path 9" d="M319.69,10.739,308.368,5.567V1.622a1.551,1.551,0,0,0-3.1,0v9.966a1.551,1.551,0,0,0,3.1,0V8.977L318.4,13.56a8.809,8.809,0,0,1,5.136,7.993v.111h-1.771a1.551,1.551,0,0,0,0,3.1h1.771v3.543h-1.771a1.551,1.551,0,0,0,0,3.1h1.771v2.745a4.093,4.093,0,0,1-1.207,2.913,1.56,1.56,0,0,0,0,2.193,4.093,4.093,0,0,1,1.207,2.913v9.278a1.551,1.551,0,0,0,3.1,0V42.173a7.17,7.17,0,0,0-1.213-4.01,7.17,7.17,0,0,0,1.213-4.01v-12.6a11.918,11.918,0,0,0-6.949-10.814Z" transform="translate(-273.708)" fill="#fff" stroke="#581b1f" stroke-width="0.5"/>
    <path id="Path_10" data-name="Path 10" d="M8.238,13.56,18.271,8.977v2.611a1.551,1.551,0,0,0,3.1,0V1.622a1.551,1.551,0,0,0-3.1,0V5.567L6.949,10.739A11.918,11.918,0,0,0,0,21.553v12.6a7.17,7.17,0,0,0,1.213,4.01A7.17,7.17,0,0,0,0,42.173v9.278a1.551,1.551,0,0,0,3.1,0V42.173A4.093,4.093,0,0,1,4.308,39.26a1.56,1.56,0,0,0,0-2.193A4.093,4.093,0,0,1,3.1,34.154V31.41H4.873a1.551,1.551,0,0,0,0-3.1H3.1V24.766H4.873a1.551,1.551,0,0,0,0-3.1H3.1v-.111A8.809,8.809,0,0,1,8.238,13.56Z" transform="translate(0 0)" fill="#fff" stroke="#581b1f" stroke-width="0.5"/>
    <path id="Path_11" data-name="Path 11" d="M316.855,257.067a1.551,1.551,0,0,0-1.551,1.551v6.644a1.771,1.771,0,0,1-1.771,1.771h-6.644a1.551,1.551,0,0,0,0,3.1h6.644a4.869,4.869,0,0,0,1.771-.332v12.069a1.551,1.551,0,0,0,3.1,0V258.618A1.551,1.551,0,0,0,316.855,257.067Z" transform="translate(-273.779 -230.42)" fill="#fff" stroke="#581b1f" stroke-width="0.5"/>
    <path id="Path_12" data-name="Path 12" d="M91.85,267.1H85.206a1.771,1.771,0,0,1-1.771-1.771v-6.644a1.551,1.551,0,0,0-3.1,0v23.254a1.551,1.551,0,0,0,3.1,0V269.873a4.867,4.867,0,0,0,1.771.332H91.85A1.551,1.551,0,0,0,91.85,267.1Z" transform="translate(-72.028 -230.491)" fill="#fff" stroke="#581b1f" stroke-width="0.5"/>
    <path id="Path_13" data-name="Path 13" d="M242.551,273.133A1.551,1.551,0,0,0,241,274.684v3.322a1.551,1.551,0,0,0,3.1,0v-3.322A1.551,1.551,0,0,0,242.551,273.133Z" transform="translate(-216.085 -244.825)" fill="#fff" stroke="#581b1f" stroke-width="0.5"/>
    <path id="Path_14" data-name="Path 14" d="M111.236,155.153l.034-.035a1.551,1.551,0,0,0-2.23-2.155,3.151,3.151,0,0,1-4.446,0l-1.144-1.144a6.312,6.312,0,0,0,2.794-1.617,5.492,5.492,0,0,1,7.761,0,1.551,1.551,0,0,0,2.232-2.153,8.6,8.6,0,0,0-12.2-.027,3.147,3.147,0,0,1-3.069.8l1.93-1.93a1.551,1.551,0,0,0-2.193-2.193l-2.191,2.191-2.229-2.229a1.551,1.551,0,0,0-2.193,2.193l1.959,1.959a3.148,3.148,0,0,1-3.1-.79,8.6,8.6,0,0,0-12.2.027,1.551,1.551,0,0,0,2.232,2.153,5.492,5.492,0,0,1,7.761,0,6.315,6.315,0,0,0,2.824,1.625L92.4,153a3.151,3.151,0,0,1-4.446,0,1.551,1.551,0,0,0-2.23,2.155l.033.035a6.256,6.256,0,0,0,8.835,0l3.921-3.921,3.884,3.884A6.255,6.255,0,0,0,111.236,155.153Z" transform="translate(-72.033 -129.215)" fill="#fff" stroke="#581b1f" stroke-width="0.5"/>
  </g>
</svg>
