<svg xmlns="http://www.w3.org/2000/svg" width="50.137" height="57.358" viewBox="0 0 50.137 57.358">
  <g id="Group_1" data-name="Group 1" transform="translate(13431.977 2372)">
    <path id="Path_29224" data-name="Path 29224" d="M9.2,37.923A28.709,28.709,0,0,0,34.68,63.208a29.058,29.058,0,0,0,2.972.152,28.711,28.711,0,0,0,19.633-7.726,5.926,5.926,0,0,0,1.861-4.728,5.865,5.865,0,0,0-2.429-4.4,14.543,14.543,0,0,1,0-23.638,5.84,5.84,0,0,0,2.42-4.4,6,6,0,0,0-1.9-4.788A28.683,28.683,0,0,0,9.2,37.923Zm8.917-20.778A26.279,26.279,0,0,1,55.6,15.43a3.614,3.614,0,0,1,1.148,2.888,3.458,3.458,0,0,1-1.43,2.605,16.932,16.932,0,0,0,0,27.519,3.486,3.486,0,0,1,1.437,2.618,3.545,3.545,0,0,1-1.11,2.828A26.285,26.285,0,0,1,11.58,37.662,26.087,26.087,0,0,1,18.121,17.145Z" transform="translate(-13441 -2378.001)" fill="#fff"/>
    <path id="Path_29225" data-name="Path 29225" d="M37.61,19.172a3.585,3.585,0,1,0-3.585-3.585A3.589,3.589,0,0,0,37.61,19.172Zm0-4.78a1.2,1.2,0,1,1-1.2,1.2A1.2,1.2,0,0,1,37.61,14.392Z" transform="translate(-13436.124 -2376.831)" fill="#fff"/>
    <path id="Path_29226" data-name="Path 29226" d="M35.025,46.587A3.585,3.585,0,1,0,38.61,43,3.589,3.589,0,0,0,35.025,46.587Zm4.78,0a1.2,1.2,0,1,1-1.2-1.2A1.2,1.2,0,0,1,39.805,46.587Z" transform="translate(-13435.929 -2370.785)" fill="#fff"/>
    <path id="Path_29227" data-name="Path 29227" d="M28.61,19.172a3.585,3.585,0,1,0-3.585-3.585A3.589,3.589,0,0,0,28.61,19.172Zm0-4.78a1.2,1.2,0,1,1-1.2,1.2A1.2,1.2,0,0,1,28.61,14.392Z" transform="translate(-13437.879 -2376.831)" fill="#fff"/>
    <path id="Path_29228" data-name="Path 29228" d="M21.61,24.172a3.585,3.585,0,1,0-3.585-3.585A3.589,3.589,0,0,0,21.61,24.172Zm0-4.78a1.2,1.2,0,1,1-1.2,1.2A1.2,1.2,0,0,1,21.61,19.392Z" transform="translate(-13439.244 -2375.856)" fill="#fff"/>
    <path id="Path_29229" data-name="Path 29229" d="M17.61,31.172a3.585,3.585,0,1,0-3.585-3.585A3.589,3.589,0,0,0,17.61,31.172Zm0-4.78a1.2,1.2,0,1,1-1.2,1.2A1.2,1.2,0,0,1,17.61,26.392Z" transform="translate(-13440.024 -2374.491)" fill="#fff"/>
    <path id="Path_29230" data-name="Path 29230" d="M22.2,35.587a3.585,3.585,0,1,0-3.585,3.585A3.589,3.589,0,0,0,22.2,35.587Zm-3.585,1.2a1.2,1.2,0,1,1,1.2-1.2A1.2,1.2,0,0,1,18.61,36.782Z" transform="translate(-13439.829 -2372.93)" fill="#fff"/>
    <path id="Path_29231" data-name="Path 29231" d="M23.61,39A3.585,3.585,0,1,0,27.2,42.587,3.589,3.589,0,0,0,23.61,39Zm0,4.78a1.2,1.2,0,1,1,1.2-1.2A1.2,1.2,0,0,1,23.61,43.782Z" transform="translate(-13438.854 -2371.565)" fill="#fff"/>
    <path id="Path_29232" data-name="Path 29232" d="M27.025,46.587A3.585,3.585,0,1,0,30.61,43,3.589,3.589,0,0,0,27.025,46.587Zm4.78,0a1.2,1.2,0,1,1-1.2-1.2A1.2,1.2,0,0,1,31.805,46.587Z" transform="translate(-13437.489 -2370.785)" fill="#fff"/>
  </g>
</svg>
