<svg xmlns="http://www.w3.org/2000/svg" width="58.343" height="59.268" viewBox="0 0 58.343 59.268">
  <g id="dotwork" transform="translate(-1.25 -1)">
    <g id="Group_17949" data-name="Group 17949" transform="translate(1.25 1)">
      <circle id="Ellipse_1094" data-name="Ellipse 1094" cx="2.854" cy="2.854" r="2.854" transform="translate(2.203 39.685)" fill="#fff"/>
      <circle id="Ellipse_1095" data-name="Ellipse 1095" cx="2.551" cy="2.551" r="2.551" transform="translate(0.524 34.646)" fill="#fff"/>
      <circle id="Ellipse_1096" data-name="Ellipse 1096" cx="2.248" cy="2.248" r="2.248" transform="translate(0 29.308)" fill="#fff"/>
      <circle id="Ellipse_1097" data-name="Ellipse 1097" cx="1.945" cy="1.945" r="1.945" transform="translate(0.639 23.919)" fill="#fff"/>
      <circle id="Ellipse_1098" data-name="Ellipse 1098" cx="1.642" cy="1.642" r="1.642" transform="translate(2.44 18.722)" fill="#fff"/>
      <circle id="Ellipse_1099" data-name="Ellipse 1099" cx="1.34" cy="1.34" r="1.34" transform="translate(5.345 13.954)" fill="#fff"/>
      <circle id="Ellipse_1100" data-name="Ellipse 1100" cx="1.037" cy="1.037" r="1.037" transform="translate(9.236 9.83)" fill="#fff"/>
      <circle id="Ellipse_1101" data-name="Ellipse 1101" cx="0.734" cy="0.734" r="0.734" transform="translate(13.956 6.534)" fill="#fff"/>
      <circle id="Ellipse_1102" data-name="Ellipse 1102" cx="2.854" cy="2.854" r="2.854" transform="translate(49.764 42.995)" fill="#fff"/>
      <circle id="Ellipse_1103" data-name="Ellipse 1103" cx="2.548" cy="2.548" r="2.548" transform="translate(46.4 47.659)" fill="#fff"/>
      <circle id="Ellipse_1104" data-name="Ellipse 1104" cx="2.242" cy="2.242" r="2.242" transform="translate(42.222 51.477)" fill="#fff"/>
      <circle id="Ellipse_1105" data-name="Ellipse 1105" cx="1.936" cy="1.936" r="1.936" transform="translate(37.416 54.298)" fill="#fff"/>
      <circle id="Ellipse_1106" data-name="Ellipse 1106" cx="1.63" cy="1.63" r="1.63" transform="translate(32.202 56.008)" fill="#fff"/>
      <circle id="Ellipse_1107" data-name="Ellipse 1107" cx="1.324" cy="1.324" r="1.324" transform="translate(26.812 56.556)" fill="#fff"/>
      <circle id="Ellipse_1108" data-name="Ellipse 1108" cx="1.018" cy="1.018" r="1.018" transform="translate(21.491 55.935)" fill="#fff"/>
      <circle id="Ellipse_1109" data-name="Ellipse 1109" cx="0.951" cy="0.951" r="0.951" transform="translate(16.246 53.933)" fill="#fff"/>
      <circle id="Ellipse_1110" data-name="Ellipse 1110" cx="2.854" cy="2.854" r="2.854" transform="translate(29.104)" fill="#fff"/>
      <circle id="Ellipse_1111" data-name="Ellipse 1111" cx="2.537" cy="2.537" r="2.537" transform="translate(35.24 1.398)" fill="#fff"/>
      <circle id="Ellipse_1112" data-name="Ellipse 1112" cx="2.22" cy="2.22" r="2.22" transform="translate(40.999 4.016)" fill="#fff"/>
      <circle id="Ellipse_1113" data-name="Ellipse 1113" cx="1.902" cy="1.902" r="1.902" transform="translate(46.146 7.748)" fill="#fff"/>
      <circle id="Ellipse_1114" data-name="Ellipse 1114" cx="1.585" cy="1.585" r="1.585" transform="translate(50.457 12.427)" fill="#fff"/>
      <circle id="Ellipse_1115" data-name="Ellipse 1115" cx="1.268" cy="1.268" r="1.268" transform="translate(53.748 17.856)" fill="#fff"/>
      <circle id="Ellipse_1116" data-name="Ellipse 1116" cx="0.951" cy="0.951" r="0.951" transform="translate(55.875 23.804)" fill="#fff"/>
      <circle id="Ellipse_1117" data-name="Ellipse 1117" cx="0.951" cy="0.951" r="0.951" transform="translate(56.44 29.694)" fill="#fff"/>
    </g>
    <g id="Group_17950" data-name="Group 17950" transform="translate(11.081 10.098)">
      <circle id="Ellipse_1118" data-name="Ellipse 1118" cx="1.995" cy="1.995" r="1.995" transform="translate(11.805 36.837)" fill="#fff"/>
      <circle id="Ellipse_1119" data-name="Ellipse 1119" cx="1.783" cy="1.783" r="1.783" transform="translate(8.397 35.388)" fill="#fff"/>
      <circle id="Ellipse_1120" data-name="Ellipse 1120" cx="1.571" cy="1.571" r="1.571" transform="translate(5.412 33.221)" fill="#fff"/>
      <circle id="Ellipse_1121" data-name="Ellipse 1121" cx="1.36" cy="1.36" r="1.36" transform="translate(2.977 30.453)" fill="#fff"/>
      <circle id="Ellipse_1122" data-name="Ellipse 1122" cx="1.148" cy="1.148" r="1.148" transform="translate(1.211 27.206)" fill="#fff"/>
      <circle id="Ellipse_1123" data-name="Ellipse 1123" cx="0.936" cy="0.936" r="0.936" transform="translate(0.203 23.625)" fill="#fff"/>
      <circle id="Ellipse_1124" data-name="Ellipse 1124" cx="0.725" cy="0.725" r="0.725" transform="translate(0 19.876)" fill="#fff"/>
      <circle id="Ellipse_1125" data-name="Ellipse 1125" cx="0.513" cy="0.513" r="0.513" transform="translate(0.616 16.125)" fill="#fff"/>
      <circle id="Ellipse_1126" data-name="Ellipse 1126" cx="1.995" cy="1.995" r="1.995" transform="translate(36.948 14.967)" fill="#fff"/>
      <circle id="Ellipse_1127" data-name="Ellipse 1127" cx="1.781" cy="1.781" r="1.781" transform="translate(37.501 19.148)" fill="#fff"/>
      <circle id="Ellipse_1128" data-name="Ellipse 1128" cx="1.567" cy="1.567" r="1.567" transform="translate(37.235 23.314)" fill="#fff"/>
      <circle id="Ellipse_1129" data-name="Ellipse 1129" cx="1.353" cy="1.353" r="1.353" transform="translate(36.166 27.298)" fill="#fff"/>
      <circle id="Ellipse_1130" data-name="Ellipse 1130" cx="1.139" cy="1.139" r="1.139" transform="translate(34.345 30.934)" fill="#fff"/>
      <circle id="Ellipse_1131" data-name="Ellipse 1131" cx="0.925" cy="0.925" r="0.925" transform="translate(31.863 34.082)" fill="#fff"/>
      <circle id="Ellipse_1132" data-name="Ellipse 1132" cx="0.711" cy="0.711" r="0.711" transform="translate(28.838 36.62)" fill="#fff"/>
      <circle id="Ellipse_1133" data-name="Ellipse 1133" cx="0.665" cy="0.665" r="0.665" transform="translate(25.237 38.268)" fill="#fff"/>
      <circle id="Ellipse_1134" data-name="Ellipse 1134" cx="1.995" cy="1.995" r="1.995" transform="translate(5.487 3.928)" fill="#fff"/>
      <circle id="Ellipse_1135" data-name="Ellipse 1135" cx="1.773" cy="1.773" r="1.773" transform="translate(9.119 1.808)" fill="#fff"/>
      <circle id="Ellipse_1136" data-name="Ellipse 1136" cx="1.551" cy="1.551" r="1.551" transform="translate(13.167 0.478)" fill="#fff"/>
      <circle id="Ellipse_1137" data-name="Ellipse 1137" cx="1.33" cy="1.33" r="1.33" transform="translate(17.464)" fill="#fff"/>
      <circle id="Ellipse_1138" data-name="Ellipse 1138" cx="1.108" cy="1.108" r="1.108" transform="translate(21.815 0.403)" fill="#fff"/>
      <circle id="Ellipse_1139" data-name="Ellipse 1139" cx="0.886" cy="0.886" r="0.886" transform="translate(26.033 1.681)" fill="#fff"/>
      <circle id="Ellipse_1140" data-name="Ellipse 1140" cx="0.665" cy="0.665" r="0.665" transform="translate(29.932 3.791)" fill="#fff"/>
      <circle id="Ellipse_1141" data-name="Ellipse 1141" cx="0.665" cy="0.665" r="0.665" transform="translate(33.122 6.423)" fill="#fff"/>
    </g>
  </g>
</svg>
