<svg xmlns="http://www.w3.org/2000/svg" width="46.858" height="57.858" viewBox="0 0 46.858 57.858">
  <g id="facial_tattoo" transform="translate(0.255 0.25)">
    <path id="Path_15" data-name="Path 15" d="M95.468,56.427,94.256,45.333a8.02,8.02,0,0,0-5.76-6.855L78.38,35.546a1.557,1.557,0,0,1-1.119-1.489V31.54a10.783,10.783,0,0,0,5.791-9.016h.223a3.886,3.886,0,0,0,2.5-.906l.583,1.41a7.639,7.639,0,0,1-1.738,8.431,6.7,6.7,0,0,1-4.25,1.863A.84.84,0,0,0,80.411,35a8.387,8.387,0,0,0,5.378-2.338,9.313,9.313,0,0,0,2.119-10.277l-.984-2.38a3.894,3.894,0,0,0-.955-4.209,13.781,13.781,0,0,0,.294-3.98,8.532,8.532,0,0,0-4.746-7.638A5.287,5.287,0,0,0,72.511,3.3H71.019A3.274,3.274,0,0,0,67.785,0a3.23,3.23,0,0,0-2.678,1.421L63.878,3.237,62.649,1.421a3.234,3.234,0,0,0-5.912,1.813A2.317,2.317,0,0,0,59,5.576h2.046a8.5,8.5,0,0,0-2.718,6.241,13.4,13.4,0,0,0,.294,3.98,3.893,3.893,0,0,0-.946,4.232l-.974,2.357a9.31,9.31,0,0,0,2.118,10.277A8.373,8.373,0,0,0,64.6,35.011H67a1.547,1.547,0,0,1-.788.535L56.1,38.478a8.021,8.021,0,0,0-5.76,6.855L49.126,56.426a.84.84,0,0,0,.744.927.855.855,0,0,0,.092.005.84.84,0,0,0,.834-.749l.27-2.471a3.8,3.8,0,0,0,2.177-1.3l2.564-3.1a2.16,2.16,0,0,0,.432-1.885l-.2-.813a2.194,2.194,0,0,0-2.64-1.566l-1.428.378.037-.336a6.345,6.345,0,0,1,4.557-5.423l1.341-.388.342,4.728-.581,3.245a18.814,18.814,0,0,0-.088,6.105l.427,2.86a.84.84,0,0,0,1.662-.248l-.427-2.86a17.133,17.133,0,0,1,.08-5.561l.476-2.657H70.292l-.731.731a.84.84,0,0,0,1.188,1.188l1.522-1.523,1.609,1.609a.84.84,0,1,0,1.188-1.188L73.01,44.074a.84.84,0,0,0-.738-.439H65.178l-.472-5.9,1.976-.572a3.312,3.312,0,0,0,2.332-3.1V32.242a10.959,10.959,0,0,0,6.566,0v1.816a3.246,3.246,0,0,0,2.332,3.1l1.977.573-.472,5.9H76.5a.84.84,0,1,0,0,1.68h8.3a23.1,23.1,0,0,1,.556,8.218l-.427,2.86a.84.84,0,1,0,1.662.248l.427-2.86c.55-3.046-.111-6.44-.669-9.351l.342-4.728,1.34.388a6.345,6.345,0,0,1,4.557,5.423L93.8,56.609a.84.84,0,0,0,.834.749.856.856,0,0,0,.092-.005.84.84,0,0,0,.744-.926ZM53.831,47.1a.484.484,0,0,1,.577.343l.2.813a.472.472,0,0,1-.095.412l-2.564,3.1a2.135,2.135,0,0,1-.683.545l.51-4.666Zm9.662-3.461H59.876l-.319-4.41,3.5-1.015ZM83.275,20.843h-.21V16.4h.21a2.224,2.224,0,0,1,0,4.448Zm1.308-9.026a20.492,20.492,0,0,1-.1,3.089,3.889,3.889,0,0,0-1.206-.191h-.21v-.731a5.285,5.285,0,0,0-1.721-3.9,8.112,8.112,0,0,0,.7-3.584,6.849,6.849,0,0,1,2.54,5.318ZM76.75,2.855a3.61,3.61,0,0,1,3.6,3.391c.208,2.514-1.279,5.77-3.863,5.883H70.707a3.115,3.115,0,0,1-2.693-1.752h1.264a3.3,3.3,0,0,0,3.151-2.288l.893-2.744A3.68,3.68,0,0,1,76.75,2.855ZM66.5,2.363a1.553,1.553,0,0,1,2.84.871.637.637,0,0,1-.586.662H65.461Zm-8.081.947V3.234a1.553,1.553,0,0,1,2.84-.871L62.294,3.9H59A.586.586,0,0,1,58.417,3.31ZM61.53,20.843h-.21a2.224,2.224,0,1,1,0-4.448h.21Zm5.8,12.488H64.6A6.7,6.7,0,0,1,60,31.459a7.638,7.638,0,0,1-1.737-8.431l.578-1.4a3.886,3.886,0,0,0,2.483.894h.223a10.783,10.783,0,0,0,5.791,9.016ZM63.21,21.987v-8a3.587,3.587,0,0,1,.616-2.016.84.84,0,1,0-1.392-.941,5.261,5.261,0,0,0-.9,2.957v.731h-.21a3.885,3.885,0,0,0-1.206.191,21.825,21.825,0,0,1-.1-3.089,6.826,6.826,0,0,1,4.042-6.241h4.7a2.255,2.255,0,0,0,1.527-.6h1.394l-.842,2.589A1.629,1.629,0,0,1,69.278,8.7H66.515A.84.84,0,0,0,65.8,9.976c1,1.934,2.533,3.908,4.909,3.834h5.779a4.907,4.907,0,0,0,3.985-2.225,3.607,3.607,0,0,1,.914,2.4v8a9.087,9.087,0,0,1-18.175,0ZM85.038,39.226l-.319,4.41H81.1l.434-5.425Z" transform="translate(-49.121 0)" fill="#fff" stroke="#fff" stroke-width="0.5"/>
    <path id="Path_16" data-name="Path 16" d="M240.326,236.547a1.061,1.061,0,0,1-1.365,0,.84.84,0,1,0-1.082,1.286,2.741,2.741,0,0,0,3.528,0,.84.84,0,1,0-1.082-1.286Z" transform="translate(-216.468 -209.872)" fill="#fff" stroke="#fff" stroke-width="0.5"/>
    <path id="Path_17" data-name="Path 17" d="M195.706,469.568a.84.84,0,1,0-1.621.441l.855,3.142a.84.84,0,1,0,1.621-.441Z" transform="translate(-177.819 -416.413)" fill="#fff" stroke="#fff" stroke-width="0.5"/>
    <path id="Path_18" data-name="Path 18" d="M297.226,468.979a.841.841,0,0,0-1.031.59l-.855,3.142a.84.84,0,1,0,1.621.441l.855-3.142A.84.84,0,0,0,297.226,468.979Z" transform="translate(-267.73 -416.414)" fill="#fff" stroke="#fff" stroke-width="0.5"/>
    <path id="Path_19" data-name="Path 19" d="M249.341,181.383a.84.84,0,0,0,.84-.84v-2.2a.84.84,0,0,0-1.68,0v2.2A.84.84,0,0,0,249.341,181.383Z" transform="translate(-226.165 -157.621)" fill="#fff" stroke="#fff" stroke-width="0.5"/>
  </g>
</svg>
