<svg xmlns="http://www.w3.org/2000/svg" width="39" height="40" viewBox="0 0 39 40">
  <g id="Group_17908" data-name="Group 17908" transform="translate(0.189 0.431)">
    <rect id="Rectangle_4045" data-name="Rectangle 4045" width="39" height="40" rx="4" transform="translate(-0.189 -0.431)" fill="#cf1b1b"/>
    <g id="Group_17909" data-name="Group 17909" transform="translate(12.813 7.569)">
      <g id="noun_dollar_811469">
        <g id="Group_8863" data-name="Group 8863">
          <g id="Group_8862" data-name="Group 8862">
            <path id="Path_23975" data-name="Path 23975" d="M30.389,30.718h2.046a.853.853,0,0,0,.85-.85V27.9l.425-.113c3.468-.873,4.7-3.259,4.7-5.032,0-3.287-2.834-4.653-5.611-5.56-2.607-.861-3.44-1.383-3.44-2.154,0-.691.8-1.383,2.59-1.383a8.441,8.441,0,0,1,3.735.8.843.843,0,0,0,1.122-.408l.811-1.717a.853.853,0,0,0-.408-1.128,10.322,10.322,0,0,0-3.231-.9l-.5-.062v-1.7a.848.848,0,0,0-.85-.845H30.615a.852.852,0,0,0-.85.845v1.9l-.425.108c-2.8.708-4.472,2.5-4.472,4.8,0,3.027,3,4.375,5.94,5.3,2.715.884,3.083,1.649,3.083,2.284,0,.981-1.269,1.694-3.015,1.694A9.5,9.5,0,0,1,26.6,23.616a.832.832,0,0,0-.4-.1.914.914,0,0,0-.272.045.865.865,0,0,0-.5.459l-.782,1.74A.843.843,0,0,0,25,26.841a10.89,10.89,0,0,0,4.03,1.173l.5.051v1.8a.85.85,0,0,0,.859.853Z" transform="translate(-24.574 -7.702)" fill="#fff"/>
          </g>
        </g>
      </g>
    </g>
  </g>
</svg>
