<svg id="Group_17573" data-name="Group 17573" xmlns="http://www.w3.org/2000/svg" width="50.811" height="56.599" viewBox="0 0 50.811 56.599">
  <path id="Path_6" data-name="Path 6" d="M75.987,4.453a3.445,3.445,0,0,0-4.867,0l-1.7,1.7L63.6.324a1.106,1.106,0,0,0-1.563,1.563l5.825,5.825-5.869,5.869-1.868-1.868A3.442,3.442,0,0,0,54.6,7.756l-5.623,5.623a3.457,3.457,0,0,0-3.956.653l-3.75,3.75a1.106,1.106,0,0,0,1.563,1.563l3.75-3.75a1.237,1.237,0,0,1,1.74,0L54.935,22.2a1.106,1.106,0,0,0,1.563,0l5.494-5.494,2.522,2.522a1.232,1.232,0,0,1,0,1.74L50.671,34.812a1.106,1.106,0,0,0,1.563,1.563L54.6,34.009l2.013,2.567-2.555,2.555A1.106,1.106,0,0,0,55.622,40.7l2.366-2.366L60,40.9l-2.555,2.555a1.106,1.106,0,0,0,1.563,1.563l2.366-2.366,2.013,2.567-2.555,2.555A1.106,1.106,0,0,0,62.4,49.335l2.366-2.366.682.87a1.623,1.623,0,0,1-.112,2.039l-4.208,4.208a.964.964,0,0,1-.737.3.99.99,0,0,1-.715-.4L46.855,37.638a6.066,6.066,0,0,0-4.289-2.244,4.907,4.907,0,0,0-3.817,1.429,1.237,1.237,0,0,1-1.74,0l-4.955-4.955a1.232,1.232,0,0,1,0-1.74L35.8,26.38a1.106,1.106,0,0,0-1.563-1.563l-3.749,3.749a3.447,3.447,0,0,0-.653,3.956l-2.65,2.65a3.441,3.441,0,0,0,4.867,4.866l2.521-2.521.87.87a3.448,3.448,0,0,0,4.867,0,2.7,2.7,0,0,1,2.12-.786A3.846,3.846,0,0,1,45.116,39L57.934,55.35a3.213,3.213,0,0,0,2.322,1.244q.1.006.19.006a3.149,3.149,0,0,0,2.243-.951L66.9,51.441a3.8,3.8,0,0,0,.288-4.967L56.175,32.434l4.5-4.5,3.017,3.017a3.441,3.441,0,1,0,4.867-4.866l-3.017-3.017.54-.54a3.447,3.447,0,0,0,.653-3.956l6-6,.87.87a1.106,1.106,0,0,0,1.563-1.563l-.87-.87,1.7-1.7a3.445,3.445,0,0,0,0-4.866Zm-45.5,34.022a1.23,1.23,0,0,1-1.74-1.74l2.521-2.521,1.74,1.74ZM56.168,9.319a1.23,1.23,0,0,1,1.74,1.74l-5.494,5.494-1.74-1.74Zm-.451,10.537-1.74-1.74L58.689,13.4l1.74,1.74Zm11.275,7.8a1.23,1.23,0,1,1-1.74,1.74l-3.017-3.017,1.74-1.74ZM65.3,16.884l-1.74-1.74,5.869-5.869,1.74,1.74Zm9.128-9.128-1.7,1.7-1.74-1.74,1.7-1.7a1.23,1.23,0,1,1,1.74,1.74Z" transform="translate(-26.182 0)" fill="#fff"/>
  <path id="Path_7" data-name="Path 7" d="M134.544,205.25a3.445,3.445,0,0,0,4.867,0l4.011-4.011a3.441,3.441,0,0,0-4.867-4.867l-4.011,4.011A3.445,3.445,0,0,0,134.544,205.25Zm1.563-3.3,4.011-4.011a1.23,1.23,0,0,1,1.74,1.74l-4.011,4.011a1.23,1.23,0,0,1-1.74-1.74Z" transform="translate(-121.67 -173.777)" fill="#fff"/>
  <path id="Path_8" data-name="Path 8" d="M128.328,191.666a1.106,1.106,0,0,0,1.562-.074h0a1.105,1.105,0,1,0-1.562.075Z" transform="translate(-116.715 -168.767)" fill="#fff"/>
</svg>
