<svg xmlns="http://www.w3.org/2000/svg" width="46.742" height="46.742" viewBox="0 0 46.742 46.742">
  <g id="temporary" transform="translate(-16 -16)">
    <path id="Path_29233" data-name="Path 29233" d="M56.445,40.345a.974.974,0,0,0-.2.022,34.424,34.424,0,0,1-5.943.708c-1.907,0-2.373-.37-2.448-.444-.452-.452-1.435-2.191-.818-8.576a71.142,71.142,0,0,1,1.082-7.086.981.981,0,0,0,.022-.2,8.764,8.764,0,1,0-17.528,0,.975.975,0,0,0,.022.2,71.016,71.016,0,0,1,1.08,7.069c.62,6.4-.365,8.14-.817,8.592-.074.074-.541.444-2.448.444a34.4,34.4,0,0,1-5.943-.708.981.981,0,0,0-.2-.022,6.3,6.3,0,0,0-6.3,6.3v9.283a.974.974,0,0,0,.974.974h4.869v4.869a.974.974,0,0,0,.974.974H55.926a.974.974,0,0,0,.974-.974V56.9h4.869a.974.974,0,0,0,.974-.974V46.642A6.3,6.3,0,0,0,56.445,40.345Zm-1.493,20.45H23.79V56.9H54.952Zm5.843-5.843H17.948V50.083H37.424a.974.974,0,1,0,0-1.948H17.948V46.642A4.355,4.355,0,0,1,22.2,42.294a35.337,35.337,0,0,0,6.243.728c1.917,0,3.133-.323,3.825-1.015,1.449-1.449,1.9-4.772,1.378-10.157a72.228,72.228,0,0,0-1.092-7.184,6.817,6.817,0,0,1,13.632,0,72.245,72.245,0,0,0-1.092,7.184c-.522,5.385-.071,8.708,1.378,10.157.692.692,1.908,1.015,3.825,1.015a35.358,35.358,0,0,0,6.243-.728,4.355,4.355,0,0,1,4.254,4.349Z" transform="translate(0 0)" fill="#fff"/>
  </g>
</svg>
