<svg xmlns="http://www.w3.org/2000/svg" width="39" height="40" viewBox="0 0 39 40">
  <g id="Group_17908" data-name="Group 17908" transform="translate(0.189 0.431)">
    <rect id="Rectangle_4045" data-name="Rectangle 4045" width="39" height="40" rx="4" transform="translate(-0.189 -0.431)" fill="#cf1b1b"/>
    <g id="noun_User_534855" transform="translate(6.381 6.056)">
      <g id="Group_8886" data-name="Group 8886">
        <path id="Path_24103" data-name="Path 24103" d="M26.226,27.366H1.14A1.14,1.14,0,0,1,0,26.226C0,19.31,6.138,13.683,13.683,13.683S27.366,19.31,27.366,26.226A1.139,1.139,0,0,1,26.226,27.366ZM2.351,25.086H25.016c-.633-5.124-5.473-9.122-11.332-9.122s-10.7,4-11.333,9.122Zm11.332-9.122a7.982,7.982,0,1,1,7.982-7.982A7.991,7.991,0,0,1,13.683,15.964Zm0-13.683a5.7,5.7,0,1,0,5.7,5.7A5.708,5.708,0,0,0,13.683,2.281Z" fill="#fff"/>
      </g>
    </g>
  </g>
</svg>
