<svg id="Group_17858" data-name="Group 17858" xmlns="http://www.w3.org/2000/svg" width="18.335" height="18.751" viewBox="0 0 18.335 18.751">
  <path id="Path_29211" data-name="Path 29211" d="M119.371,258.667a.425.425,0,0,0-.426-.425H117.46a.425.425,0,0,0-.425.425v1.485a.425.425,0,0,0,.425.426h1.485a.425.425,0,0,0,.426-.426v-1.485Z" transform="translate(-112.747 -248.323)" fill="#cf1b1b"/>
  <path id="Path_29212" data-name="Path 29212" d="M216.006,258.667a.425.425,0,0,0-.425-.425H214.1a.425.425,0,0,0-.425.425v1.485a.425.425,0,0,0,.425.426h1.485a.425.425,0,0,0,.425-.426Z" transform="translate(-205.67 -248.323)" fill="#cf1b1b"/>
  <path id="Path_29213" data-name="Path 29213" d="M312.634,258.667a.425.425,0,0,0-.425-.425h-1.485a.425.425,0,0,0-.426.425v1.485a.425.425,0,0,0,.426.426h1.485a.425.425,0,0,0,.425-.426Z" transform="translate(-298.587 -248.323)" fill="#cf1b1b"/>
  <path id="Path_29214" data-name="Path 29214" d="M119.371,355.3a.425.425,0,0,0-.426-.425H117.46a.425.425,0,0,0-.425.425v1.485a.425.425,0,0,0,.425.425h1.485a.425.425,0,0,0,.426-.425V355.3Z" transform="translate(-112.747 -341.244)" fill="#cf1b1b"/>
  <path id="Path_29215" data-name="Path 29215" d="M216.006,355.3a.425.425,0,0,0-.425-.425H214.1a.425.425,0,0,0-.425.425v1.485a.425.425,0,0,0,.425.425h1.485a.425.425,0,0,0,.425-.425Z" transform="translate(-205.67 -341.244)" fill="#cf1b1b"/>
  <path id="Path_29216" data-name="Path 29216" d="M312.634,355.3a.425.425,0,0,0-.425-.425h-1.485a.425.425,0,0,0-.426.425v1.485a.425.425,0,0,0,.426.425h1.485a.425.425,0,0,0,.425-.425V355.3Z" transform="translate(-298.587 -341.244)" fill="#cf1b1b"/>
  <path id="Path_29217" data-name="Path 29217" d="M22.114,54.15v2.268a1.853,1.853,0,0,1-1.857,1.851H19.086a1.862,1.862,0,0,1-1.868-1.851V54.142H11.939v2.276a1.862,1.862,0,0,1-1.868,1.851H8.9a1.853,1.853,0,0,1-1.857-1.851V54.15A1.688,1.688,0,0,0,5.411,55.83V69.122a1.689,1.689,0,0,0,1.681,1.691H22.065a1.691,1.691,0,0,0,1.681-1.691V55.83A1.688,1.688,0,0,0,22.114,54.15ZM21.57,68.295a.727.727,0,0,1-.727.727H8.282a.727.727,0,0,1-.727-.727V61.428a.727.727,0,0,1,.727-.727H20.843a.727.727,0,0,1,.727.727v6.866Z" transform="translate(-5.411 -52.062)" fill="#cf1b1b"/>
  <path id="Path_29218" data-name="Path 29218" d="M80.187,4.991h1.159a.636.636,0,0,0,.637-.636V.637A.637.637,0,0,0,81.345,0H80.187a.637.637,0,0,0-.637.637V4.355A.636.636,0,0,0,80.187,4.991Z" transform="translate(-76.702)" fill="#cf1b1b"/>
  <path id="Path_29219" data-name="Path 29219" d="M345.095,4.991h1.159a.636.636,0,0,0,.637-.636V.637A.637.637,0,0,0,346.253,0h-1.159a.637.637,0,0,0-.637.637V4.355A.636.636,0,0,0,345.095,4.991Z" transform="translate(-331.435)" fill="#cf1b1b"/>
</svg>
