<svg xmlns="http://www.w3.org/2000/svg" width="23.021" height="23.021" viewBox="0 0 23.021 23.021">
  <g id="noun_Time_1954442" transform="translate(0.15 0.15)">
    <path id="Path_24209" data-name="Path 24209" d="M139.16,127a11.36,11.36,0,1,0,11.36,11.36A11.36,11.36,0,0,0,139.16,127Zm0,21.358a10,10,0,1,1,10-10,10,10,0,0,1-10,10Zm1.022-15.648a.591.591,0,0,0-.591.591v5.334h-5.248a.682.682,0,1,0,0,1.363h5.692a.677.677,0,0,0,.157-.019.591.591,0,0,0,.581-.591V133.3A.591.591,0,0,0,140.182,132.71Z" transform="translate(-127.8 -127)" fill="#8b8b8b" stroke="#8b8b8b" stroke-width="0.3"/>
  </g>
</svg>
